# xmcd
#
# Track frame offsets:
#	180
#	18298
#	37724
#	54825
#	73837
#	97354
#	103362
#	126425
#	147786
#	166428
#	185626
#
# Disc length: 2838 seconds
#
# Revision: 0
# Processed by: cddbd v1.5.2PL0 Copyright (c) Steve Scherf et al.
# Submitted via: audiograbber 1.83.01
#
DISCID=9e0b140b
DTITLE=Various Artist - Uoc mo cua nang
DYEAR=1900
DGENRE=Pop
TTITLE0=Ngoc Hue - Uoc mo cua nang
TTITLE1=Don Ho - Noi nho khong ten
TTITLE2=Thao Diep - Tinh dau
TTITLE3=Thuy Vi - Tinh yeu ngay tho
TTITLE4=Thao Diep - Sau vuong khoi may
TTITLE5=Unknown - Unknown
TTITLE6=Ngoc Hue - Tinh yeu phuong nao
TTITLE7=Don Ho - Hoi tinh yeu
TTITLE8=Thao Diep - Tinh em trao anh
TTITLE9=Thanh Phuong - Neu biet xa em
TTITLE10=Ngoc Hue - Vinh biet tinh anh
EXTD=
EXTT0=
EXTT1=
EXTT2=
EXTT3=
EXTT4=
EXTT5=
EXTT6=
EXTT7=
EXTT8=
EXTT9=
EXTT10=
PLAYORDER=
